<svg version="1.1" xmlns="http://www.w3.org/2000/svg" viewBox="0 0 1707.169921875 1622.697878421276" width="3414.33984375" height="3245.395756842552">
  <!-- svg-source:excalidraw -->
  
  <defs>
    <style class="style-fonts">
      @font-face {
        font-family: "Virgil";
        src: url("https://excalidraw.com/Virgil.woff2");
      }
      @font-face {
        font-family: "Cascadia";
        src: url("https://excalidraw.com/Cascadia.woff2");
      }
      @font-face {
        font-family: "Assistant";
        src: url("https://excalidraw.com/Assistant-Regular.woff2");
      }
    </style>
    
  </defs>
  <rect x="0" y="0" width="1707.169921875" height="1622.697878421276" fill="#f8f9fa"></rect><g stroke-linecap="round" transform="translate(945.865234375 10) rotate(0 44.17578125 37.099609375)"><path d="M25.26 3.64 C31.85 0.45, 42.21 -1.22, 50.04 -0.41 C57.86 0.41, 66.23 4.24, 72.2 8.55 C78.17 12.86, 83.26 19.08, 85.83 25.46 C88.39 31.83, 89.65 40.36, 87.59 46.79 C85.52 53.22, 79.7 59.59, 73.42 64.02 C67.13 68.46, 57.76 72.17, 49.89 73.4 C42.01 74.64, 33.3 74.09, 26.15 71.44 C19 68.78, 11.41 63.19, 7 57.45 C2.59 51.71, -0.37 43.55, -0.32 37.02 C-0.27 30.49, 1.39 24.3, 7.3 18.27 C13.2 12.24, 28.78 3.64, 35.1 0.85 C41.43 -1.93, 45.1 0.88, 45.24 1.58 M43.61 0.45 C51.08 0.03, 61.31 4.06, 68.32 7.55 C75.32 11.03, 82.3 15.45, 85.65 21.35 C89.01 27.26, 90.03 36.35, 88.45 42.97 C86.87 49.59, 81.79 55.91, 76.16 61.07 C70.54 66.24, 62.09 72.07, 54.72 73.96 C47.36 75.85, 39.58 74.62, 31.98 72.43 C24.38 70.24, 14.17 66.07, 9.12 60.84 C4.07 55.61, 2.54 47.49, 1.68 41.07 C0.83 34.65, 0.82 28.14, 3.98 22.31 C7.15 16.47, 13.73 9.61, 20.67 6.08 C27.61 2.56, 41.5 2.1, 45.62 1.18 C49.74 0.26, 45.29 0.16, 45.39 0.55" stroke="#1e1e1e" stroke-width="2" fill="none"></path></g><g transform="translate(971.2740299890091 34.36622400656549) rotate(0 18.529991149902344 12.5)"><text x="18.529991149902344" y="0" font-family="Virgil, Segoe UI Emoji" font-size="20px" fill="#1e1e1e" text-anchor="middle" style="white-space: pre;" direction="ltr" dominant-baseline="text-before-edge">(, 3</text></g><g stroke-linecap="round"><g transform="translate(947.346365244605 60.64293507740153) rotate(0 -124.20852089540318 37.73446736361115)"><path d="M-0.13 -0.88 C-41.39 11.7, -206.12 63.18, -247.6 75.78 M-1.65 1.28 C-43.01 13.44, -206.71 61.42, -248.12 73.82" stroke="#1e1e1e" stroke-width="2" fill="none"></path></g><g transform="translate(947.346365244605 60.64293507740153) rotate(0 -124.20852089540318 37.73446736361115)"><path d="M-224 55.99 C-232.64 62.68, -237.9 65.67, -248.12 73.82 M-224 55.99 C-230.1 59.37, -236.4 64.25, -248.12 73.82" stroke="#1e1e1e" stroke-width="2" fill="none"></path></g><g transform="translate(947.346365244605 60.64293507740153) rotate(0 -124.20852089540318 37.73446736361115)"><path d="M-218.17 75.67 C-228.63 76.45, -235.63 73.53, -248.12 73.82 M-218.17 75.67 C-225.68 74.29, -233.37 74.44, -248.12 73.82" stroke="#1e1e1e" stroke-width="2" fill="none"></path></g></g><mask></mask><g stroke-linecap="round"><g transform="translate(1036.206130146953 69.06428049071445) rotate(0 284.95588807526116 73.26268416474099)"><path d="M-1.18 0.99 C93.71 25.54, 474.55 123.43, 569.53 147.68 M0.4 0.46 C95.09 24.68, 473.28 121.61, 568.38 146.17" stroke="#1e1e1e" stroke-width="2" fill="none"></path></g><g transform="translate(1036.206130146953 69.06428049071445) rotate(0 284.95588807526116 73.26268416474099)"><path d="M538.52 149.08 C549.55 147.82, 559.21 145.55, 568.38 146.17 M538.52 149.08 C547.17 147.66, 556.87 146.91, 568.38 146.17" stroke="#1e1e1e" stroke-width="2" fill="none"></path></g><g transform="translate(1036.206130146953 69.06428049071445) rotate(0 284.95588807526116 73.26268416474099)"><path d="M543.63 129.21 C553.11 134.14, 561.17 138.12, 568.38 146.17 M543.63 129.21 C550.6 133.68, 558.77 138.86, 568.38 146.17" stroke="#1e1e1e" stroke-width="2" fill="none"></path></g></g><mask></mask><g stroke-linecap="round" transform="translate(603.919921875 97.39453125) rotate(0 46.66015625 41.349609375)"><path d="M48.55 -0.14 C56.46 -0.33, 64.84 3.87, 71.75 7.97 C78.66 12.08, 86.36 17.69, 90 24.49 C93.64 31.29, 94.94 41.16, 93.61 48.76 C92.27 56.35, 87.64 64.64, 82 70.06 C76.37 75.47, 67.91 79.56, 59.78 81.24 C51.65 82.93, 41.23 82.34, 33.22 80.18 C25.21 78.02, 17.12 74.01, 11.72 68.27 C6.31 62.52, 2.15 53.17, 0.81 45.71 C-0.53 38.26, 0.19 30.04, 3.7 23.54 C7.2 17.05, 13.9 10.75, 21.85 6.75 C29.8 2.74, 45.64 0.28, 51.42 -0.47 C57.2 -1.22, 56.45 1.36, 56.55 2.26 M28.29 3.96 C35.33 -0.02, 44.93 -1.77, 52.98 -0.95 C61.04 -0.13, 70.03 3.82, 76.62 8.87 C83.21 13.92, 89.79 22, 92.5 29.34 C95.21 36.69, 95.22 45.63, 92.87 52.94 C90.51 60.26, 84.84 68.1, 78.35 73.22 C71.86 78.33, 62.57 82.65, 53.94 83.63 C45.31 84.61, 34.28 82.62, 26.56 79.11 C18.84 75.6, 11.99 68.89, 7.63 62.55 C3.27 56.21, 0.68 48.49, 0.4 41.05 C0.11 33.62, 1.44 23.94, 5.9 17.92 C10.36 11.91, 23.43 6.94, 27.16 4.95 C30.89 2.96, 28.26 5.76, 28.29 5.98" stroke="#1e1e1e" stroke-width="2" fill="none"></path></g><g transform="translate(632.0563740794988 126.00555143652264) rotate(0 18.529991149902344 12.5)"><text x="18.529991149902344" y="0" font-family="Virgil, Segoe UI Emoji" font-size="20px" fill="#1e1e1e" text-anchor="middle" style="white-space: pre;" direction="ltr" dominant-baseline="text-before-edge">(, 3</text></g><g stroke-linecap="round" transform="translate(1586.666015625 209.109375) rotate(0 55.251953125 49.00390625)"><path d="M76.68 3.12 C85.05 5.37, 93.37 11.32, 99.01 17.85 C104.64 24.39, 109.37 34.25, 110.5 42.34 C111.64 50.43, 109.36 58.78, 105.81 66.4 C102.26 74.02, 96.16 83.02, 89.2 88.07 C82.23 93.11, 73.01 95.74, 63.99 96.68 C54.97 97.62, 43.63 96.69, 35.07 93.69 C26.51 90.69, 18.49 84.89, 12.62 78.68 C6.74 72.47, 1.1 64.35, -0.19 56.45 C-1.49 48.54, 1.17 38.91, 4.83 31.24 C8.5 23.56, 14.83 15.63, 21.79 10.4 C28.75 5.18, 36.92 0.68, 46.59 -0.12 C56.25 -0.93, 73.74 4.34, 79.77 5.58 C85.81 6.82, 83.24 6.56, 82.79 7.33 M39.16 2.03 C47.4 -0.79, 57.93 -0.24, 66.78 1.63 C75.63 3.51, 85.53 7.92, 92.27 13.29 C99.01 18.66, 104.53 25.88, 107.23 33.87 C109.94 41.86, 110.5 52.99, 108.51 61.22 C106.52 69.46, 101.52 77.75, 95.28 83.28 C89.05 88.8, 80 92.19, 71.1 94.39 C62.2 96.58, 50.54 98.11, 41.88 96.46 C33.22 94.81, 25.81 89.88, 19.16 84.49 C12.51 79.1, 4.99 71.8, 1.98 64.11 C-1.03 56.41, -1.21 46.59, 1.09 38.3 C3.38 30.02, 9.48 20.49, 15.76 14.39 C22.03 8.3, 34.71 3.71, 38.73 1.74 C42.74 -0.23, 39.5 1.72, 39.85 2.56" stroke="#1e1e1e" stroke-width="2" fill="none"></path></g><g transform="translate(1619.6289520595972 245.46228683599514) rotate(0 22.219985961914062 12.5)"><text x="22.219985961914062" y="0" font-family="Virgil, Segoe UI Emoji" font-size="20px" fill="#1e1e1e" text-anchor="middle" style="white-space: pre;" direction="ltr" dominant-baseline="text-before-edge">(), 2</text></g><g stroke-linecap="round" transform="translate(355.220703125 332.6484375) rotate(0 49.55078125 46.173828125)"><path d="M30.75 4.15 C37.92 0.44, 48.27 -1.25, 56.44 -0.38 C64.62 0.5, 73.41 4.69, 79.82 9.39 C86.24 14.09, 91.64 20.7, 94.95 27.82 C98.26 34.94, 100.82 44.53, 99.68 52.11 C98.54 59.69, 93.36 67.03, 88.1 73.29 C82.85 79.54, 75.47 86.52, 68.13 89.63 C60.79 92.74, 52 93.17, 44.06 91.95 C36.12 90.73, 27.21 86.97, 20.49 82.29 C13.77 77.62, 7.23 70.91, 3.74 63.89 C0.25 56.87, -1.7 47.64, -0.47 40.18 C0.76 32.72, 4.28 25.76, 11.11 19.14 C17.93 12.52, 33.84 3.61, 40.48 0.46 C47.13 -2.68, 50.88 -0.42, 50.99 0.28 M49.59 -0.45 C57.5 -0.77, 65.95 3.62, 73.11 7.18 C80.26 10.73, 87.94 14.31, 92.51 20.87 C97.08 27.44, 100.35 38.81, 100.54 46.56 C100.72 54.31, 97.89 60.75, 93.64 67.37 C89.39 74, 82.17 81.9, 75.03 86.3 C67.88 90.71, 59.1 93.85, 50.76 93.81 C42.42 93.76, 32.33 89.96, 25 86.03 C17.67 82.1, 11.15 76.51, 6.77 70.24 C2.39 63.97, -1.37 56.12, -1.29 48.41 C-1.2 40.69, 3.1 30.66, 7.27 23.94 C11.44 17.21, 16.91 12.2, 23.73 8.05 C30.55 3.89, 44.22 0, 48.17 -0.98 C52.12 -1.96, 47.21 1.23, 47.42 2.16" stroke="#1e1e1e" stroke-width="2" fill="none"></path></g><g transform="translate(382.5138049781197 366.1724386444704) rotate(0 22.219985961914062 12.5)"><text x="22.219985961914062" y="0" font-family="Virgil, Segoe UI Emoji" font-size="20px" fill="#1e1e1e" text-anchor="middle" style="white-space: pre;" direction="ltr" dominant-baseline="text-before-edge">(), 2</text></g><g stroke-linecap="round" transform="translate(968.724609375 348.294921875) rotate(0 49.55078125 46.173828125)"><path d="M73.46 5.34 C80.78 8.21, 87.81 15.41, 92.12 21.9 C96.42 28.38, 99.12 36.61, 99.27 44.25 C99.43 51.9, 96.82 60.87, 93.05 67.75 C89.27 74.63, 83.55 81.56, 76.63 85.51 C69.7 89.46, 59.96 91.23, 51.52 91.44 C43.09 91.65, 33.43 90.36, 26.03 86.77 C18.62 83.18, 11.39 76.48, 7.1 69.89 C2.81 63.3, 0.46 54.97, 0.3 47.24 C0.13 39.51, 2.31 30.17, 6.1 23.49 C9.9 16.82, 16.1 11.04, 23.07 7.19 C30.04 3.34, 38.94 0.37, 47.94 0.39 C56.95 0.41, 71.63 5.33, 77.12 7.3 C82.6 9.27, 81.25 11.36, 80.84 12.2 M46.73 -0.91 C54.33 -2.24, 63.56 0.74, 70.98 4.53 C78.4 8.31, 86.69 15.46, 91.26 21.81 C95.84 28.15, 98.03 35.22, 98.42 42.58 C98.8 49.94, 97.36 58.95, 93.59 65.98 C89.82 73.02, 82.65 80.35, 75.81 84.79 C68.97 89.23, 60.44 92.13, 52.56 92.62 C44.68 93.11, 35.81 91.49, 28.52 87.75 C21.22 84.01, 13.7 76.5, 8.8 70.18 C3.89 63.87, -0.49 57.55, -0.91 49.86 C-1.33 42.16, 2.49 30.96, 6.29 23.99 C10.08 17.01, 14.86 11.94, 21.84 8.01 C28.81 4.08, 43.99 1.57, 48.11 0.42 C52.23 -0.74, 46.79 0.35, 46.54 1.07" stroke="#1e1e1e" stroke-width="2" fill="none"></path></g><g transform="translate(995.557712143647 381.8189230194704) rotate(0 22.67998504638672 12.5)"><text x="22.67998504638672" y="0" font-family="Virgil, Segoe UI Emoji" font-size="20px" fill="#1e1e1e" text-anchor="middle" style="white-space: pre;" direction="ltr" dominant-baseline="text-before-edge">((, 3</text></g><g stroke-linecap="round"><g transform="translate(610.822265625 165.015625) rotate(0 -91.37487616438398 85.9413995830927)"><path d="M0.42 0.03 C-29.87 28.9, -152.1 144.22, -182.62 172.86 M-0.82 -1 C-31.17 27.58, -153.07 142.22, -183.5 171.24" stroke="#1e1e1e" stroke-width="2" fill="none"></path></g><g transform="translate(610.822265625 165.015625) rotate(0 -91.37487616438398 85.9413995830927)"><path d="M-170.07 144.42 C-173.12 150.69, -174.55 156.62, -183.5 171.24 M-170.07 144.42 C-174.96 152.83, -179.1 159.56, -183.5 171.24" stroke="#1e1e1e" stroke-width="2" fill="none"></path></g><g transform="translate(610.822265625 165.015625) rotate(0 -91.37487616438398 85.9413995830927)"><path d="M-155.97 159.32 C-162.13 162.31, -166.72 164.89, -183.5 171.24 M-155.97 159.32 C-164.97 163.18, -173.3 165.48, -183.5 171.24" stroke="#1e1e1e" stroke-width="2" fill="none"></path></g></g><mask></mask><g stroke-linecap="round"><g transform="translate(698.4551443205844 156.49883405044392) rotate(0 148.27749606600355 97.62569404559022)"><path d="M-1.13 0.7 C48.45 33.49, 247.48 163.56, 296.99 196.15 M0.48 0.02 C49.98 32.53, 247.22 162.1, 296.28 194.5" stroke="#1e1e1e" stroke-width="2" fill="none"></path></g><g transform="translate(698.4551443205844 156.49883405044392) rotate(0 148.27749606600355 97.62569404559022)"><path d="M267.09 187.57 C275.77 190.37, 283.65 190.39, 296.28 194.5 M267.09 187.57 C277.64 189.53, 288.93 192.06, 296.28 194.5" stroke="#1e1e1e" stroke-width="2" fill="none"></path></g><g transform="translate(698.4551443205844 156.49883405044392) rotate(0 148.27749606600355 97.62569404559022)"><path d="M278.37 170.43 C284.05 177.55, 289.02 182, 296.28 194.5 M278.37 170.43 C284.69 179.05, 291.66 188.14, 296.28 194.5" stroke="#1e1e1e" stroke-width="2" fill="none"></path></g></g><mask></mask><g stroke-linecap="round" transform="translate(323.470703125 505.6953125) rotate(0 49.4921875 42.3125)"><path d="M28.11 3.37 C35.65 -0.31, 48.44 -1.29, 57.45 -0.23 C66.46 0.84, 75.64 4.79, 82.17 9.78 C88.69 14.78, 94.09 22.37, 96.59 29.74 C99.09 37.12, 99.72 46.53, 97.16 54.04 C94.59 61.55, 88.01 69.81, 81.22 74.81 C74.43 79.8, 65.21 82.95, 56.4 84.01 C47.58 85.08, 36.49 84.17, 28.33 81.18 C20.18 78.19, 12.26 72.6, 7.46 66.07 C2.66 59.54, -0.7 49.69, -0.47 42.01 C-0.25 34.33, 3.44 26.5, 8.8 20.01 C14.17 13.52, 27.14 5.86, 31.73 3.05 C36.32 0.23, 35.99 2.66, 36.35 3.13 M32.99 3.04 C40.71 -0.18, 52.51 -2.22, 61.01 -0.54 C69.5 1.13, 78.06 7.48, 83.97 13.1 C89.87 18.72, 94.71 25.76, 96.46 33.19 C98.21 40.62, 97.34 50.48, 94.46 57.67 C91.58 64.85, 86.02 71.9, 79.2 76.28 C72.37 80.67, 62.42 83.56, 53.5 83.96 C44.57 84.36, 33.52 82.45, 25.65 78.68 C17.77 74.91, 10.69 67.75, 6.27 61.31 C1.85 54.88, -1.6 47.66, -0.87 40.07 C-0.14 32.48, 5.37 22.03, 10.66 15.77 C15.96 9.5, 27.09 4.64, 30.9 2.47 C34.72 0.3, 32.95 1.85, 33.53 2.73" stroke="#1e1e1e" stroke-width="2" fill="none"></path></g><g transform="translate(346.5966493695955 535.5883568210442) rotate(0 26.369979858398438 12.5)"><text x="26.369979858398438" y="0" font-family="Virgil, Segoe UI Emoji" font-size="20px" fill="#1e1e1e" text-anchor="middle" style="white-space: pre;" direction="ltr" dominant-baseline="text-before-edge">()(, 2</text></g><g stroke-linecap="round"><g transform="translate(388.5020169094472 426.8550621419973) rotate(0 -7.473270903447045 35.85974997681919)"><path d="M0.8 -0.27 C-1.82 11.72, -13.39 59.49, -15.92 71.53 M-0.25 -1.45 C-2.47 10.75, -11.28 60.49, -13.72 72.97" stroke="#1e1e1e" stroke-width="2" fill="none"></path></g><g transform="translate(388.5020169094472 426.8550621419973) rotate(0 -7.473270903447045 35.85974997681919)"><path d="M-18.68 43.38 C-17.82 50.01, -16.31 60.82, -13.72 72.97 M-18.68 43.38 C-16.94 53.83, -16.09 63.21, -13.72 72.97" stroke="#1e1e1e" stroke-width="2" fill="none"></path></g><g transform="translate(388.5020169094472 426.8550621419973) rotate(0 -7.473270903447045 35.85974997681919)"><path d="M1.5 47.11 C-3.28 52.83, -7.42 62.6, -13.72 72.97 M1.5 47.11 C-3.23 56.37, -8.86 64.56, -13.72 72.97" stroke="#1e1e1e" stroke-width="2" fill="none"></path></g></g><mask></mask><g stroke-linecap="round" transform="translate(98.326171875 629.375) rotate(0 41.982421875 44.326171875)"><path d="M44.48 0.29 C51.7 0.04, 61.68 3.53, 67.73 8.3 C73.78 13.08, 78.38 21.54, 80.76 28.94 C83.15 36.35, 83.67 45.05, 82.05 52.71 C80.43 60.38, 76.05 69.12, 71.04 74.92 C66.03 80.73, 59.4 85.58, 52 87.53 C44.59 89.49, 34.01 89.4, 26.6 86.66 C19.18 83.93, 11.99 77.64, 7.51 71.13 C3.02 64.61, 0.24 55.71, -0.32 47.58 C-0.88 39.45, 0.62 29.21, 4.16 22.34 C7.69 15.46, 13.49 9.98, 20.88 6.31 C28.27 2.64, 43.24 1.06, 48.5 0.32 C53.77 -0.43, 52.6 1.02, 52.49 1.87 M25.05 3.26 C31.62 -0.86, 41.29 -2.45, 48.43 -1.08 C55.57 0.29, 62.05 6.09, 67.89 11.46 C73.73 16.83, 80.93 23.58, 83.45 31.15 C85.96 38.73, 85.3 49.29, 82.97 56.89 C80.64 64.5, 75.28 71.56, 69.47 76.79 C63.65 82.02, 55.69 86.95, 48.09 88.26 C40.48 89.57, 30.62 88.05, 23.83 84.65 C17.03 81.26, 11.38 74.56, 7.33 67.88 C3.27 61.21, -0.39 52.39, -0.51 44.61 C-0.62 36.82, 2.59 27.98, 6.63 21.16 C10.67 14.34, 20.99 6.23, 23.73 3.66 C26.46 1.1, 22.54 4.87, 23.04 5.77" stroke="#1e1e1e" stroke-width="2" fill="none"></path></g><g transform="translate(115.70654581473664 663.857835158147) rotate(0 24.415992736816406 10)"><text x="24.415992736816406" y="0" font-family="Virgil, Segoe UI Emoji" font-size="16px" fill="#1e1e1e" text-anchor="middle" style="white-space: pre;" direction="ltr" dominant-baseline="text-before-edge">()((, 2</text></g><g stroke-linecap="round"><g transform="translate(327.1463055329043 566.2107206003599) rotate(0 -77.40799090157421 35.908169903822454)"><path d="M-0.51 -0.23 C-26.44 11.65, -129.97 59.53, -155.52 71.43 M1.42 -1.39 C-24.13 10.63, -127.27 60.51, -153.18 72.77" stroke="#1e1e1e" stroke-width="2" fill="none"></path></g><g transform="translate(327.1463055329043 566.2107206003599) rotate(0 -77.40799090157421 35.908169903822454)"><path d="M-132.19 51.34 C-138.94 56.61, -145.61 66.01, -153.18 72.77 M-132.19 51.34 C-137.88 56.49, -143.17 61.32, -153.18 72.77" stroke="#1e1e1e" stroke-width="2" fill="none"></path></g><g transform="translate(327.1463055329043 566.2107206003599) rotate(0 -77.40799090157421 35.908169903822454)"><path d="M-123.32 69.84 C-132.81 69.43, -142.18 73.19, -153.18 72.77 M-123.32 69.84 C-131.06 70.43, -138.52 70.72, -153.18 72.77" stroke="#1e1e1e" stroke-width="2" fill="none"></path></g></g><mask></mask><g stroke-linecap="round" transform="translate(450.279296875 697.73828125) rotate(0 49.4921875 42.3125)"><path d="M56.42 0.64 C64.79 0.98, 74.26 5.82, 80.82 10.7 C87.38 15.58, 92.98 22.81, 95.76 29.91 C98.54 37.01, 99.84 46.05, 97.49 53.29 C95.15 60.54, 88.41 68.28, 81.68 73.38 C74.95 78.47, 65.74 82.59, 57.12 83.87 C48.49 85.15, 37.99 84.02, 29.94 81.07 C21.89 78.11, 13.84 72.62, 8.81 66.16 C3.78 59.69, -0.06 49.92, -0.22 42.27 C-0.37 34.63, 3.19 26.7, 7.86 20.27 C12.53 13.85, 19.57 7.06, 27.8 3.74 C36.04 0.41, 51.8 0.62, 57.27 0.32 C62.75 0.02, 60.62 1.08, 60.64 1.92 M56.78 1.92 C65.21 2.25, 74.63 5.92, 81.23 10.8 C87.82 15.67, 93.96 24.08, 96.33 31.19 C98.7 38.3, 98.09 46.12, 95.45 53.47 C92.8 60.82, 87.26 69.95, 80.46 75.31 C73.65 80.67, 63.19 84.65, 54.64 85.62 C46.08 86.58, 37.01 84.74, 29.12 81.09 C21.22 77.44, 12.3 70.07, 7.26 63.69 C2.21 57.31, -1.27 50.4, -1.15 42.82 C-1.03 35.25, 3.08 24.66, 7.98 18.24 C12.89 11.82, 19.99 7.31, 28.26 4.3 C36.52 1.28, 52.97 0.46, 57.58 0.14 C62.2 -0.18, 56.01 1.75, 55.94 2.36" stroke="#1e1e1e" stroke-width="2" fill="none"></path></g><g transform="translate(474.43524189889234 727.6313255710442) rotate(0 25.339981079101562 12.5)"><text x="25.339981079101562" y="0" font-family="Virgil, Segoe UI Emoji" font-size="20px" fill="#1e1e1e" text-anchor="middle" style="white-space: pre;" direction="ltr" dominant-baseline="text-before-edge">()(), 1</text></g><g stroke-linecap="round"><g transform="translate(407.61048947732814 580.5687253009453) rotate(0 47.77195357523158 55.082771277356585)"><path d="M0.71 0.09 C16.56 18.43, 78.98 92.81, 94.98 111.12 M-0.37 -0.9 C15.28 17.63, 77.59 90.83, 93.74 109.51" stroke="#1e1e1e" stroke-width="2" fill="none"></path></g><g transform="translate(407.61048947732814 580.5687253009453) rotate(0 47.77195357523158 55.082771277356585)"><path d="M67.6 94.78 C75.49 97.96, 84.52 105.09, 93.74 109.51 M67.6 94.78 C74.99 98.28, 83.18 103.47, 93.74 109.51" stroke="#1e1e1e" stroke-width="2" fill="none"></path></g><g transform="translate(407.61048947732814 580.5687253009453) rotate(0 47.77195357523158 55.082771277356585)"><path d="M83.18 81.42 C86.67 88.58, 91.17 99.59, 93.74 109.51 M83.18 81.42 C86.21 88.56, 90 97.53, 93.74 109.51" stroke="#1e1e1e" stroke-width="2" fill="none"></path></g></g><mask></mask><g stroke-linecap="round" transform="translate(10 884.029296875) rotate(0 69.83593750000001 44.326171875)"><path d="M46.4 3.01 C55.84 0.16, 68.53 -0.8, 79.08 -0.03 C89.64 0.73, 100.98 3.6, 109.71 7.6 C118.45 11.61, 126.56 17.81, 131.52 24.01 C136.48 30.21, 139.6 37.86, 139.48 44.82 C139.37 51.77, 135.95 59.66, 130.82 65.75 C125.69 71.84, 117.65 77.68, 108.68 81.36 C99.72 85.04, 87.68 87.14, 77.02 87.83 C66.37 88.52, 54.69 87.98, 44.75 85.47 C34.8 82.97, 24.39 78.03, 17.36 72.79 C10.33 67.55, 5.1 60.79, 2.55 54.03 C0 47.27, -0.55 38.91, 2.07 32.21 C4.68 25.51, 9.42 18.91, 18.24 13.83 C27.05 8.74, 46.98 3.84, 54.95 1.69 C62.91 -0.46, 65.68 0.41, 66 0.93 M67.63 1.52 C77.96 0.55, 90.21 0.1, 100.03 2.92 C109.85 5.75, 120.18 12.73, 126.55 18.45 C132.91 24.16, 136.78 30.65, 138.22 37.22 C139.65 43.79, 138.56 51.32, 135.17 57.88 C131.79 64.44, 125.5 71.71, 117.92 76.56 C110.34 81.42, 100.17 85.36, 89.69 86.99 C79.22 88.63, 65.52 87.88, 55.07 86.37 C44.62 84.86, 35.08 82.17, 26.98 77.93 C18.88 73.69, 10.69 67.05, 6.48 60.91 C2.26 54.78, 0.88 47.94, 1.69 41.1 C2.49 34.27, 5.61 25.55, 11.3 19.88 C16.98 14.21, 26.75 10.25, 35.78 7.1 C44.82 3.95, 60.33 2, 65.51 0.98 C70.68 -0.03, 66.5 0.51, 66.81 1.03" stroke="#1e1e1e" stroke-width="2" fill="none"></path></g><g transform="translate(56.36248491336681 918.512132033147) rotate(0 23.59198760986328 10)"><text x="23.59198760986328" y="0" font-family="Virgil, Segoe UI Emoji" font-size="16px" fill="#1e1e1e" text-anchor="middle" style="white-space: pre;" direction="ltr" dominant-baseline="text-before-edge">()((), 1</text></g><g stroke-linecap="round"><g transform="translate(132.7829269251995 723.7646952026255) rotate(0 -28.474119488529716 75.67694160462759)"><path d="M1.15 -0.42 C-8.44 24.75, -47.77 126.13, -57.37 151.4 M0.3 -1.68 C-9.5 23.67, -48.99 127.28, -58.54 152.97" stroke="#1e1e1e" stroke-width="2" fill="none"></path></g><g transform="translate(132.7829269251995 723.7646952026255) rotate(0 -28.474119488529716 75.67694160462759)"><path d="M-58.19 122.97 C-58.9 131.68, -58.23 142.59, -58.54 152.97 M-58.19 122.97 C-57.63 131.86, -58.17 139.56, -58.54 152.97" stroke="#1e1e1e" stroke-width="2" fill="none"></path></g><g transform="translate(132.7829269251995 723.7646952026255) rotate(0 -28.474119488529716 75.67694160462759)"><path d="M-38.99 130.21 C-45.75 136.84, -51.11 145.47, -58.54 152.97 M-38.99 130.21 C-43.99 136.97, -50.07 142.58, -58.54 152.97" stroke="#1e1e1e" stroke-width="2" fill="none"></path></g></g><mask></mask><g stroke-linecap="round" transform="translate(28.650390625 1073.033203125) rotate(0 69.83593750000001 44.326171875)"><path d="M67.64 0.5 C78.03 -0.35, 91.46 2.53, 101.11 5.44 C110.77 8.35, 119.18 12.38, 125.57 17.93 C131.96 23.49, 137.91 31.92, 139.46 38.77 C141.02 45.63, 138.48 52.77, 134.91 59.08 C131.33 65.39, 125.76 72.1, 118.02 76.66 C110.28 81.21, 99.11 84.42, 88.47 86.41 C77.82 88.39, 64.66 89.87, 54.15 88.57 C43.65 87.27, 33.63 83.29, 25.43 78.61 C17.24 73.93, 9.23 67, 5 60.5 C0.76 54, -0.95 46.18, 0.01 39.61 C0.97 33.04, 4.75 26.68, 10.76 21.08 C16.78 15.49, 24.91 9.53, 36.09 6.04 C47.26 2.56, 69.16 0.74, 77.81 0.17 C86.45 -0.39, 88.05 1.8, 87.97 2.66 M73.54 0.14 C83.91 -0.23, 95.91 2.73, 105 6.04 C114.08 9.36, 122.31 14.32, 128.05 20.02 C133.79 25.73, 138.61 33.22, 139.45 40.27 C140.29 47.33, 137.24 55.77, 133.09 62.36 C128.93 68.96, 123.09 75.6, 114.52 79.85 C105.94 84.11, 92.46 86.77, 81.63 87.91 C70.8 89.06, 59.64 88.79, 49.52 86.73 C39.39 84.66, 28.42 80.31, 20.87 75.51 C13.31 70.72, 7.29 64.68, 4.19 57.97 C1.08 51.26, 0.75 42.15, 2.25 35.25 C3.74 28.34, 6.66 21.5, 13.14 16.54 C19.63 11.58, 31.27 8.45, 41.14 5.48 C51.01 2.5, 67.04 -0.45, 72.36 -1.31 C77.68 -2.18, 72.88 -0.61, 73.06 0.29" stroke="#1e1e1e" stroke-width="2" fill="none"></path></g><g transform="translate(68.972882252234 1107.516038283147) rotate(0 29.631980895996094 10)"><text x="29.631980895996094" y="0" font-family="Virgil, Segoe UI Emoji" font-size="16px" fill="#1e1e1e" text-anchor="middle" style="white-space: pre;" direction="ltr" dominant-baseline="text-before-edge">()(()), 0</text></g><g stroke-linecap="round"><g transform="translate(90.68238773618882 973.7960594828207) rotate(0 -6.3766677288937075 45.764937021772425)"><path d="M0.94 -0.69 C-1.24 14.28, -9.56 74.92, -11.94 90.36 M-0.03 1.56 C-2.39 16.59, -10.07 76.57, -12.46 91.28" stroke="#1e1e1e" stroke-width="2" fill="none"></path></g><g transform="translate(90.68238773618882 973.7960594828207) rotate(0 -6.3766677288937075 45.764937021772425)"><path d="M-18.63 61.92 C-17.23 74.7, -15.63 83.86, -12.46 91.28 M-18.63 61.92 C-17.01 72.46, -14.96 81.64, -12.46 91.28" stroke="#1e1e1e" stroke-width="2" fill="none"></path></g><g transform="translate(90.68238773618882 973.7960594828207) rotate(0 -6.3766677288937075 45.764937021772425)"><path d="M1.69 64.83 C-4.87 76.63, -11.21 84.65, -12.46 91.28 M1.69 64.83 C-3.49 74.45, -8.23 82.66, -12.46 91.28" stroke="#1e1e1e" stroke-width="2" fill="none"></path></g></g><mask></mask><g stroke-linecap="round" transform="translate(443.158203125 892.546875) rotate(0 49.4921875 42.3125)"><path d="M48.48 -0.32 C56.76 -0.83, 68.01 3.4, 75.51 7.39 C83.02 11.38, 89.8 16.94, 93.51 23.6 C97.21 30.26, 98.82 39.57, 97.73 47.34 C96.65 55.1, 92.66 64.41, 86.99 70.21 C81.33 76.01, 72.13 80.03, 63.73 82.12 C55.32 84.21, 45.24 84.74, 36.56 82.75 C27.88 80.76, 17.49 75.93, 11.65 70.19 C5.8 64.45, 2.72 55.88, 1.52 48.29 C0.32 40.7, 0.88 31.41, 4.43 24.67 C7.98 17.94, 14.75 11.93, 22.83 7.88 C30.92 3.84, 47.29 1.64, 52.95 0.39 C58.61 -0.86, 57.06 -0.16, 56.79 0.36 M53.36 0.3 C62.11 -0.06, 72.73 3.61, 79.56 7.83 C86.39 12.05, 91.11 18.54, 94.34 25.63 C97.57 32.73, 100.61 42.8, 98.95 50.42 C97.29 58.04, 90.76 65.76, 84.38 71.35 C77.99 76.93, 69.13 82.03, 60.63 83.93 C52.12 85.82, 41.89 85.37, 33.35 82.72 C24.82 80.07, 15.14 74.26, 9.42 68.03 C3.69 61.8, -0.48 52.77, -0.98 45.33 C-1.49 37.89, 2.11 30.01, 6.4 23.38 C10.7 16.76, 17.38 9.63, 24.79 5.56 C32.2 1.5, 46.11 -0.47, 50.87 -1 C55.64 -1.54, 53.37 1.27, 53.37 2.36" stroke="#1e1e1e" stroke-width="2" fill="none"></path></g><g transform="translate(463.16415425240797 922.4399193210442) rotate(0 29.489974975585938 12.5)"><text x="29.489974975585938" y="0" font-family="Virgil, Segoe UI Emoji" font-size="20px" fill="#1e1e1e" text-anchor="middle" style="white-space: pre;" direction="ltr" dominant-baseline="text-before-edge">()()(, 1</text></g><g stroke-linecap="round"><g transform="translate(506.2064100820263 785.6057014143067) rotate(0 -4.456812914927298 51.31317851255636)"><path d="M0.36 -1.08 C-1.07 15.97, -6.98 85.05, -8.72 102.32 M-0.91 0.97 C-2.47 18.19, -8.41 86.56, -9.57 103.7" stroke="#1e1e1e" stroke-width="2" fill="none"></path></g><g transform="translate(506.2064100820263 785.6057014143067) rotate(0 -4.456812914927298 51.31317851255636)"><path d="M-17.59 74.8 C-17.05 83.45, -13.44 89.5, -9.57 103.7 M-17.59 74.8 C-14.62 82.48, -12.88 92.22, -9.57 103.7" stroke="#1e1e1e" stroke-width="2" fill="none"></path></g><g transform="translate(506.2064100820263 785.6057014143067) rotate(0 -4.456812914927298 51.31317851255636)"><path d="M2.87 76.4 C-2.5 84.65, -4.81 90.23, -9.57 103.7 M2.87 76.4 C-0.19 83.58, -4.46 92.85, -9.57 103.7" stroke="#1e1e1e" stroke-width="2" fill="none"></path></g></g><mask></mask><g stroke-linecap="round" transform="translate(432.345703125 1048.671875) rotate(0 58.16015624999994 50.99609375)"><path d="M72.71 0.76 C82.02 1.88, 93.02 7.88, 100.04 13.93 C107.06 19.99, 112.37 28.68, 114.83 37.1 C117.29 45.52, 117.34 56.24, 114.8 64.47 C112.27 72.69, 106.39 80.65, 99.61 86.46 C92.83 92.27, 83.62 96.99, 74.15 99.33 C64.68 101.67, 52.35 102.53, 42.81 100.5 C33.26 98.47, 23.72 93.24, 16.88 87.16 C10.04 81.08, 4.19 72.21, 1.77 64.01 C-0.65 55.81, -0.23 46.26, 2.37 37.96 C4.96 29.66, 10.66 20.2, 17.32 14.21 C23.98 8.23, 32.82 4.2, 42.32 2.05 C51.81 -0.1, 68.57 1.04, 74.29 1.31 C80.02 1.58, 77.01 2.84, 76.67 3.67 M78.27 4.16 C87.04 5.97, 96.61 10.25, 102.78 16.67 C108.95 23.09, 113.69 34.2, 115.28 42.68 C116.87 51.16, 115.71 59.45, 112.3 67.57 C108.88 75.69, 102.25 85.53, 94.77 91.38 C87.28 97.24, 77.03 101.24, 67.38 102.7 C57.74 104.16, 46.01 103.39, 36.88 100.14 C27.76 96.89, 18.61 89.88, 12.62 83.17 C6.64 76.46, 2.56 68.26, 0.96 59.87 C-0.64 51.48, -0.04 40.9, 3.01 32.83 C6.06 24.76, 11.55 16.92, 19.26 11.43 C26.97 5.94, 39.57 1.17, 49.27 -0.12 C58.98 -1.42, 72.94 2.88, 77.49 3.65 C82.05 4.42, 76.65 3.76, 76.61 4.5" stroke="#1e1e1e" stroke-width="2" fill="none"></path></g><g transform="translate(460.7484375997597 1089.6082850453502) rotate(0 29.631980895996094 10)"><text x="29.631980895996094" y="0" font-family="Virgil, Segoe UI Emoji" font-size="16px" fill="#1e1e1e" text-anchor="middle" style="white-space: pre;" direction="ltr" dominant-baseline="text-before-edge">()()(), 0</text></g><g stroke-linecap="round"><g transform="translate(487.44951907638637 978.220246106064) rotate(0 -0.07969085030626388 32.45962298549898)"><path d="M0.44 -0.6 C0.27 10.1, -1.28 54.24, -1.34 64.97 M-0.79 1.7 C-0.59 12.54, 0.71 56.07, 0.76 66.53" stroke="#1e1e1e" stroke-width="2" fill="none"></path></g><g transform="translate(487.44951907638637 978.220246106064) rotate(0 -0.07969085030626388 32.45962298549898)"><path d="M-10.04 38.54 C-7.89 44.23, -3.85 54.33, 0.76 66.53 M-10.04 38.54 C-7.9 44.12, -6.04 50.83, 0.76 66.53" stroke="#1e1e1e" stroke-width="2" fill="none"></path></g><g transform="translate(487.44951907638637 978.220246106064) rotate(0 -0.07969085030626388 32.45962298549898)"><path d="M10.48 38.15 C6.99 44.02, 5.39 54.23, 0.76 66.53 M10.48 38.15 C8.47 43.76, 6.21 50.55, 0.76 66.53" stroke="#1e1e1e" stroke-width="2" fill="none"></path></g></g><mask></mask><g stroke-linecap="round" transform="translate(817.775390625 552.54296875) rotate(0 47.560546875 42.935546875)"><path d="M27.76 4.31 C34.66 0.51, 44.46 -0.72, 52.78 0.28 C61.1 1.29, 71.15 5.47, 77.68 10.35 C84.2 15.22, 89.31 22.16, 91.94 29.56 C94.57 36.96, 95.5 47.03, 93.47 54.74 C91.43 62.45, 86.06 70.68, 79.74 75.81 C73.42 80.94, 63.96 84.35, 55.55 85.54 C47.15 86.73, 37.19 85.92, 29.3 82.93 C21.41 79.94, 13.2 74.3, 8.22 67.6 C3.23 60.91, -0.47 50.54, -0.61 42.78 C-0.75 35.03, 2.09 27.89, 7.37 21.06 C12.65 14.24, 26.3 5.03, 31.08 1.86 C35.86 -1.32, 35.72 1.17, 36.06 2.03 M52.59 -0.84 C60.86 -0.77, 69.87 4.74, 76.66 9.56 C83.44 14.38, 90.26 20.86, 93.31 28.07 C96.35 35.29, 97.22 45, 94.95 52.85 C92.68 60.69, 86.12 69.9, 79.7 75.14 C73.28 80.37, 64.64 83.24, 56.43 84.26 C48.21 85.27, 38.34 84.04, 30.4 81.24 C22.46 78.43, 13.86 73.67, 8.81 67.43 C3.75 61.19, 0.25 51.56, 0.05 43.81 C-0.15 36.07, 3.43 27.55, 7.61 20.97 C11.79 14.39, 17.89 7.77, 25.14 4.34 C32.39 0.9, 46.5 1.08, 51.11 0.36 C55.73 -0.36, 52.7 -0.56, 52.84 0.02" stroke="#1e1e1e" stroke-width="2" fill="none"></path></g><g transform="translate(843.7415554005398 585.6184992757346) rotate(0 21.46399688720703 10)"><text x="21.46399688720703" y="0" font-family="Virgil, Segoe UI Emoji" font-size="16px" fill="#1e1e1e" text-anchor="middle" style="white-space: pre;" direction="ltr" dominant-baseline="text-before-edge">(((, 3</text></g><g stroke-linecap="round"><g transform="translate(1002.4582669346787 439.27386143317335) rotate(0 -52.63069718615026 57.89430646545469)"><path d="M0.07 -0.15 C-17.62 19.01, -87.46 95.56, -105.2 115.06 M-1.36 -1.27 C-19.27 18.02, -89 96.83, -106.12 116.22" stroke="#1e1e1e" stroke-width="2" fill="none"></path></g><g transform="translate(1002.4582669346787 439.27386143317335) rotate(0 -52.63069718615026 57.89430646545469)"><path d="M-95.12 88.3 C-99.47 98.88, -104.57 107.37, -106.12 116.22 M-95.12 88.3 C-100.41 99.7, -103.53 110.1, -106.12 116.22" stroke="#1e1e1e" stroke-width="2" fill="none"></path></g><g transform="translate(1002.4582669346787 439.27386143317335) rotate(0 -52.63069718615026 57.89430646545469)"><path d="M-79.76 101.9 C-89.88 107.39, -100.74 110.77, -106.12 116.22 M-79.76 101.9 C-90.98 108.05, -100.06 113.18, -106.12 116.22" stroke="#1e1e1e" stroke-width="2" fill="none"></path></g></g><mask></mask><g stroke-linecap="round" transform="translate(1287.1975911764064 539.4685974298291) rotate(0 47.560546875 42.935546875)"><path d="M49.39 -0.39 C57.8 -0.33, 69 4.25, 76.15 8.98 C83.3 13.72, 89.18 21.01, 92.3 28.03 C95.43 35.05, 96.83 43.58, 94.91 51.11 C92.99 58.64, 86.86 67.45, 80.76 73.19 C74.66 78.92, 66.42 83.86, 58.29 85.53 C50.17 87.2, 40.09 85.87, 32.01 83.22 C23.94 80.57, 15.16 75.9, 9.83 69.63 C4.49 63.36, 0.86 53.32, 0.02 45.6 C-0.82 37.88, 0.64 30.02, 4.79 23.32 C8.94 16.61, 16.51 9.22, 24.93 5.36 C33.34 1.5, 49.25 0.53, 55.27 0.14 C61.3 -0.24, 61.1 2.28, 61.08 3.05 M38.43 0.09 C46.59 -1.6, 59.22 0.09, 67.44 3.39 C75.67 6.68, 82.92 13.24, 87.77 19.83 C92.62 26.42, 96.4 35.54, 96.53 42.91 C96.66 50.29, 93.28 57.8, 88.56 64.07 C83.83 70.34, 76.02 77.01, 68.18 80.54 C60.34 84.06, 50.14 85.83, 41.53 85.23 C32.92 84.64, 23.09 81.61, 16.52 76.95 C9.96 72.29, 4.57 64.74, 2.14 57.29 C-0.3 49.84, -0.13 39.68, 1.91 32.26 C3.96 24.83, 8.38 18.18, 14.41 12.76 C20.43 7.34, 33.94 1.75, 38.06 -0.28 C42.18 -2.3, 38.5 -0.37, 39.12 0.61" stroke="#1e1e1e" stroke-width="2" fill="none"></path></g><g transform="translate(1313.531759797161 572.5441279555637) rotate(0 21.095993041992188 10)"><text x="21.095993041992188" y="0" font-family="Virgil, Segoe UI Emoji" font-size="16px" fill="#1e1e1e" text-anchor="middle" style="white-space: pre;" direction="ltr" dominant-baseline="text-before-edge">((), 2</text></g><g stroke-linecap="round"><g transform="translate(1072.0894722670782 407.9996812531514) rotate(0 115.02582318937635 66.69462215251622)"><path d="M0.99 -1.1 C39.16 21.19, 191.06 111.25, 229.15 133.71 M0.04 0.94 C38.58 22.85, 193.31 109.39, 231.38 131.75" stroke="#1e1e1e" stroke-width="2" fill="none"></path></g><g transform="translate(1072.0894722670782 407.9996812531514) rotate(0 115.02582318937635 66.69462215251622)"><path d="M201.82 126.68 C209.14 126.5, 220.66 128.7, 231.38 131.75 M201.82 126.68 C211.47 127.21, 221 130.24, 231.38 131.75" stroke="#1e1e1e" stroke-width="2" fill="none"></path></g><g transform="translate(1072.0894722670782 407.9996812531514) rotate(0 115.02582318937635 66.69462215251622)"><path d="M212 108.86 C216.16 114.28, 224.53 122, 231.38 131.75 M212 108.86 C218.51 115.22, 224.77 123.98, 231.38 131.75" stroke="#1e1e1e" stroke-width="2" fill="none"></path></g></g><mask></mask><g stroke-linecap="round" transform="translate(821.06640625 710.439453125) rotate(0 47.560546875 42.935546875)"><path d="M58.52 1.06 C66.37 2.5, 75.94 8.96, 81.83 14.67 C87.71 20.37, 92.35 27.86, 93.82 35.29 C95.28 42.73, 93.73 52.18, 90.59 59.3 C87.45 66.41, 82.03 73.7, 74.98 77.97 C67.93 82.24, 57 84.77, 48.29 84.93 C39.57 85.09, 29.95 82.82, 22.69 78.93 C15.42 75.04, 8.38 68.46, 4.71 61.6 C1.05 54.73, -0.35 45.25, 0.69 37.74 C1.74 30.23, 5.84 22.49, 10.99 16.53 C16.13 10.58, 22.73 4.23, 31.56 2.01 C40.4 -0.22, 57.71 2.46, 64.01 3.17 C70.31 3.89, 69.45 5.71, 69.37 6.28 M32.64 2.37 C39.79 -0.27, 50.34 0.69, 58.67 2.84 C67 4.98, 76.83 9.94, 82.63 15.25 C88.42 20.56, 91.83 27.1, 93.43 34.7 C95.03 42.3, 95.46 53.43, 92.22 60.86 C88.97 68.3, 81.07 75.28, 73.93 79.28 C66.8 83.29, 57.73 84.61, 49.43 84.88 C41.13 85.15, 31.39 84.76, 24.13 80.93 C16.88 77.1, 9.79 69.24, 5.9 61.91 C2.01 54.59, 0.17 44.59, 0.8 36.97 C1.44 29.35, 4.47 21.97, 9.72 16.2 C14.96 10.44, 28.26 4.71, 32.28 2.36 C36.3 0.02, 33.66 1.39, 33.84 2.13" stroke="#1e1e1e" stroke-width="2" fill="none"></path></g><g transform="translate(844.0805751759304 743.5149836507346) rotate(0 24.415992736816406 10)"><text x="24.415992736816406" y="0" font-family="Virgil, Segoe UI Emoji" font-size="16px" fill="#1e1e1e" text-anchor="middle" style="white-space: pre;" direction="ltr" dominant-baseline="text-before-edge">(((), 2</text></g><g stroke-linecap="round"><g transform="translate(868.531401732437 639.3188360208304) rotate(0 -2.4253659752690737 31.656861483510113)"><path d="M-0.34 -0.1 C-1.09 10.42, -4.41 53.43, -5.17 64.09 M1.68 -1.2 C0.8 8.91, -5.06 51.87, -6.29 62.38" stroke="#1e1e1e" stroke-width="2" fill="none"></path></g><g transform="translate(868.531401732437 639.3188360208304) rotate(0 -2.4253659752690737 31.656861483510113)"><path d="M-12.91 33.12 C-11.23 39.77, -8.14 47.42, -6.29 62.38 M-12.91 33.12 C-10.88 43.1, -8.82 54.26, -6.29 62.38" stroke="#1e1e1e" stroke-width="2" fill="none"></path></g><g transform="translate(868.531401732437 639.3188360208304) rotate(0 -2.4253659752690737 31.656861483510113)"><path d="M7.45 35.71 C4.12 41.67, 2.22 48.68, -6.29 62.38 M7.45 35.71 C2.37 44.82, -2.66 55.08, -6.29 62.38" stroke="#1e1e1e" stroke-width="2" fill="none"></path></g></g><mask></mask><g stroke-linecap="round" transform="translate(704.8247230175386 891.2883861476284) rotate(0 47.560546875 42.935546875)"><path d="M39.03 -0.15 C46.75 -1.91, 57.82 0.06, 65.9 3.4 C73.97 6.73, 82.62 13.47, 87.46 19.86 C92.3 26.25, 94.96 34.18, 94.91 41.73 C94.85 49.29, 91.54 58.4, 87.13 65.17 C82.72 71.94, 76.16 78.89, 68.45 82.35 C60.75 85.82, 49.46 86.88, 40.9 85.94 C32.34 85, 23.49 81.69, 17.09 76.72 C10.7 71.74, 5.04 63.69, 2.53 56.09 C0.02 48.5, -0.08 38.72, 2.04 31.17 C4.16 23.61, 7.84 15.88, 15.24 10.77 C22.65 5.67, 40.14 2.1, 46.47 0.54 C52.8 -1.03, 53.13 0.85, 53.22 1.37 M42.71 1.33 C50.78 0.41, 61.56 2.07, 69.39 5.32 C77.22 8.57, 85.28 14.2, 89.68 20.84 C94.09 27.48, 96.49 37.22, 95.83 45.16 C95.17 53.1, 91.09 62.05, 85.73 68.49 C80.37 74.93, 71.37 81.13, 63.66 83.79 C55.95 86.45, 47.66 86.22, 39.47 84.46 C31.28 82.7, 21.08 78.67, 14.52 73.22 C7.95 67.77, 1.99 58.97, 0.07 51.76 C-1.84 44.55, -0.06 36.88, 3.04 29.95 C6.15 23.03, 12.05 14.96, 18.71 10.2 C25.38 5.43, 38.63 2.68, 43.01 1.34 C47.39 0.01, 44.95 1.68, 45 2.19" stroke="#1e1e1e" stroke-width="2" fill="none"></path></g><g transform="translate(728.6628970704222 924.3639166733631) rotate(0 23.59198760986328 10)"><text x="23.59198760986328" y="0" font-family="Virgil, Segoe UI Emoji" font-size="16px" fill="#1e1e1e" text-anchor="middle" style="white-space: pre;" direction="ltr" dominant-baseline="text-before-edge">((()), 1</text></g><g stroke-linecap="round"><g transform="translate(844.0344325564041 791.2597891656789) rotate(0 -33.93048666708131 50.03330697228574)"><path d="M1.12 -1.16 C-10.17 15.81, -55.96 83.83, -67.37 100.79 M0.25 0.84 C-11.19 17.56, -56.71 82.77, -68.06 99.04" stroke="#1e1e1e" stroke-width="2" fill="none"></path></g><g transform="translate(844.0344325564041 791.2597891656789) rotate(0 -33.93048666708131 50.03330697228574)"><path d="M-60.35 70.05 C-65.08 80.53, -64.49 90.17, -68.06 99.04 M-60.35 70.05 C-63.34 79.61, -66.27 90.69, -68.06 99.04" stroke="#1e1e1e" stroke-width="2" fill="none"></path></g><g transform="translate(844.0344325564041 791.2597891656789) rotate(0 -33.93048666708131 50.03330697228574)"><path d="M-43.52 81.79 C-53.72 88.54, -58.69 94.3, -68.06 99.04 M-43.52 81.79 C-52.36 87.32, -61.06 94.37, -68.06 99.04" stroke="#1e1e1e" stroke-width="2" fill="none"></path></g></g><mask></mask><g stroke-linecap="round" transform="translate(673.1562569964899 1078.0189495668299) rotate(0 54.654296875 52.23828125)"><path d="M47.52 0.9 C56.13 -0.97, 67.16 1.2, 75.45 4.46 C83.74 7.72, 91.55 13.53, 97.28 20.47 C103.01 27.41, 108.48 37.58, 109.84 46.11 C111.2 54.63, 108.97 63.8, 105.46 71.63 C101.95 79.46, 95.93 87.83, 88.79 93.09 C81.65 98.35, 71.63 102.07, 62.6 103.19 C53.57 104.3, 43.1 103.05, 34.61 99.77 C26.12 96.49, 17.47 90.38, 11.67 83.51 C5.87 76.64, 0.97 67.09, -0.19 58.55 C-1.36 50.02, 1.17 40.3, 4.68 32.31 C8.19 24.31, 12 15.93, 20.87 10.58 C29.73 5.22, 50.35 1.51, 57.88 0.18 C65.41 -1.14, 66.15 1.73, 66.04 2.62 M70.7 3.44 C79.14 4.72, 86.75 9.66, 92.77 15.63 C98.79 21.59, 104.17 30.58, 106.81 39.22 C109.44 47.85, 111.02 59.17, 108.57 67.41 C106.13 75.65, 98.69 82.62, 92.14 88.66 C85.59 94.7, 77.99 101.24, 69.28 103.65 C60.56 106.06, 48.82 105.42, 39.84 103.13 C30.85 100.84, 21.92 96.44, 15.36 89.9 C8.79 83.37, 2.77 72.34, 0.46 63.91 C-1.86 55.48, -1.43 47.32, 1.49 39.33 C4.4 31.34, 11.38 22.29, 17.95 15.98 C24.53 9.67, 32.17 4.03, 40.95 1.47 C49.72 -1.09, 65.65 0.56, 70.6 0.61 C75.54 0.65, 71.19 0.9, 70.64 1.73" stroke="#1e1e1e" stroke-width="2" fill="none"></path></g><g transform="translate(698.0321490341986 1120.3191879074247) rotate(0 29.631980895996094 10)"><text x="29.631980895996094" y="0" font-family="Virgil, Segoe UI Emoji" font-size="16px" fill="#1e1e1e" text-anchor="middle" style="white-space: pre;" direction="ltr" dominant-baseline="text-before-edge">((())), 0</text></g><g stroke-linecap="round"><g transform="translate(752.5666270256428 980.8093994895196) rotate(0 -7.690742285204976 45.89899567441296)"><path d="M-0.31 -0.39 C-3.26 14.85, -13.94 76.13, -16.56 91.47 M1.73 -1.63 C-0.97 13.77, -11.32 77.09, -14.47 92.84" stroke="#1e1e1e" stroke-width="2" fill="none"></path></g><g transform="translate(752.5666270256428 980.8093994895196) rotate(0 -7.690742285204976 45.89899567441296)"><path d="M-19.6 63.28 C-18.2 73, -16.08 85.54, -14.47 92.84 M-19.6 63.28 C-18.6 70.92, -16.6 80.12, -14.47 92.84" stroke="#1e1e1e" stroke-width="2" fill="none"></path></g><g transform="translate(752.5666270256428 980.8093994895196) rotate(0 -7.690742285204976 45.89899567441296)"><path d="M0.6 66.9 C-5.98 75.14, -11.84 86.25, -14.47 92.84 M0.6 66.9 C-4.22 73.45, -8.01 81.61, -14.47 92.84" stroke="#1e1e1e" stroke-width="2" fill="none"></path></g></g><mask></mask><g stroke-linecap="round" transform="translate(1168.9784937863215 726.3168380522065) rotate(0 47.560546875 42.935546875)"><path d="M30.15 2.52 C37.64 -0.85, 47.93 -0.6, 56.36 0.81 C64.79 2.22, 74.61 5.86, 80.76 11.01 C86.91 16.16, 91.32 24.25, 93.27 31.7 C95.21 39.14, 95.02 48.27, 92.46 55.66 C89.9 63.05, 84.48 71.18, 77.9 76.03 C71.32 80.89, 61.58 83.99, 52.99 84.79 C44.41 85.59, 34.15 84.14, 26.38 80.84 C18.62 77.54, 10.91 71.53, 6.41 65.01 C1.9 58.48, -0.98 49.31, -0.64 41.68 C-0.3 34.05, 2.71 25.77, 8.45 19.22 C14.2 12.68, 29.11 5.33, 33.83 2.41 C38.56 -0.5, 36.6 1.19, 36.79 1.74 M43.15 -0.41 C51.27 -1.79, 62.34 0.74, 69.89 4.13 C77.43 7.53, 84.36 13.04, 88.43 19.95 C92.5 26.87, 94.44 37.92, 94.32 45.63 C94.19 53.33, 92.57 59.82, 87.69 66.18 C82.82 72.55, 73.09 80.57, 65.06 83.82 C57.02 87.06, 47.89 87.35, 39.47 85.66 C31.06 83.97, 21.17 78.9, 14.58 73.67 C7.99 68.45, 1.91 61.62, -0.04 54.31 C-2 47.01, -0.13 37.29, 2.85 29.83 C5.84 22.37, 11.31 14.55, 17.88 9.57 C24.44 4.58, 38.19 1.49, 42.23 -0.07 C46.26 -1.62, 41.77 -0.49, 42.08 0.25" stroke="#1e1e1e" stroke-width="2" fill="none"></path></g><g transform="translate(1191.9926627122518 759.3923685779412) rotate(0 24.415992736816406 10)"><text x="24.415992736816406" y="0" font-family="Virgil, Segoe UI Emoji" font-size="16px" fill="#1e1e1e" text-anchor="middle" style="white-space: pre;" direction="ltr" dominant-baseline="text-before-edge">(()(, 2</text></g><g stroke-linecap="round"><g transform="translate(1293.8874307249523 608.5736986600654) rotate(0 -37.05324520385602 57.224787760659694)"><path d="M-0.94 1.18 C-13.04 20.25, -61.05 95.19, -73.12 114.07 M0.76 0.76 C-11.36 20.02, -61.14 96.24, -73.54 115.4" stroke="#1e1e1e" stroke-width="2" fill="none"></path></g><g transform="translate(1293.8874307249523 608.5736986600654) rotate(0 -37.05324520385602 57.224787760659694)"><path d="M-66.78 86.17 C-66.61 95.24, -70.96 102.38, -73.54 115.4 M-66.78 86.17 C-69.59 95.58, -71.87 103.73, -73.54 115.4" stroke="#1e1e1e" stroke-width="2" fill="none"></path></g><g transform="translate(1293.8874307249523 608.5736986600654) rotate(0 -37.05324520385602 57.224787760659694)"><path d="M-49.58 97.36 C-53.77 103.43, -62.52 107.71, -73.54 115.4 M-49.58 97.36 C-57.43 103.38, -64.86 108.19, -73.54 115.4" stroke="#1e1e1e" stroke-width="2" fill="none"></path></g></g><mask></mask><g stroke-linecap="round" transform="translate(1424.78515625 719.884765625) rotate(0 47.560546875 42.935546875)"><path d="M65.11 2.84 C72.62 4.91, 80.97 11.76, 86.01 18.21 C91.04 24.67, 95.06 33.77, 95.31 41.58 C95.56 49.38, 92.06 58.28, 87.52 65.05 C82.98 71.82, 75.54 78.81, 68.06 82.2 C60.58 85.58, 51.1 86.35, 42.65 85.34 C34.21 84.33, 24.14 80.88, 17.4 76.16 C10.65 71.43, 4.7 64.21, 2.17 57.02 C-0.36 49.83, 0.14 40.71, 2.21 33.02 C4.29 25.33, 8.6 16.14, 14.63 10.87 C20.66 5.61, 29.58 2.71, 38.39 1.44 C47.2 0.17, 62.39 2.51, 67.49 3.24 C72.59 3.98, 69.47 5.13, 69 5.84 M65.94 2.99 C73.94 5.11, 81.81 11.05, 86.49 17.55 C91.17 24.04, 93.72 34.22, 94.04 41.95 C94.36 49.68, 92.3 57.3, 88.41 63.91 C84.52 70.51, 78.09 78.06, 70.69 81.58 C63.3 85.1, 52.63 85.95, 44.04 85.03 C35.45 84.1, 25.82 80.75, 19.15 76.02 C12.48 71.28, 7.24 63.55, 4.01 56.59 C0.78 49.63, -2.17 41.84, -0.23 34.28 C1.7 26.72, 9.41 16.96, 15.6 11.22 C21.8 5.47, 28.84 1.22, 36.93 -0.21 C45.03 -1.64, 59.5 2.01, 64.17 2.64 C68.84 3.27, 65.14 2.8, 64.97 3.58" stroke="#1e1e1e" stroke-width="2" fill="none"></path></g><g transform="translate(1451.9433299977077 752.9602961507346) rotate(0 20.271987915039062 10)"><text x="20.271987915039062" y="0" font-family="Virgil, Segoe UI Emoji" font-size="16px" fill="#1e1e1e" text-anchor="middle" style="white-space: pre;" direction="ltr" dominant-baseline="text-before-edge">(()), 1</text></g><g stroke-linecap="round"><g transform="translate(1363.199216528168 619.4381201685808) rotate(0 49.63454148043343 47.68332053912195)"><path d="M-0.09 -0.63 C16.59 15.33, 83.34 79.19, 99.99 95.3 M-1.6 1.66 C14.99 17.85, 82.61 81.4, 99.42 96.8" stroke="#1e1e1e" stroke-width="2" fill="none"></path></g><g transform="translate(1363.199216528168 619.4381201685808) rotate(0 49.63454148043343 47.68332053912195)"><path d="M71.79 85.11 C78.77 89.75, 87.78 92.79, 99.42 96.8 M71.79 85.11 C81.69 88.71, 91.93 93.71, 99.42 96.8" stroke="#1e1e1e" stroke-width="2" fill="none"></path></g><g transform="translate(1363.199216528168 619.4381201685808) rotate(0 49.63454148043343 47.68332053912195)"><path d="M85.77 70.09 C88.61 79.1, 93.53 86.53, 99.42 96.8 M85.77 70.09 C90.65 79.16, 95.88 89.52, 99.42 96.8" stroke="#1e1e1e" stroke-width="2" fill="none"></path></g></g><mask></mask><g stroke-linecap="round" transform="translate(1173.0874584104092 873.1631115007015) rotate(0 47.560546875 42.935546875)"><path d="M32.05 1.72 C39.62 -1.25, 51.9 -0.34, 60.44 1.57 C68.98 3.48, 77.64 7.41, 83.31 13.17 C88.98 18.93, 93.16 28.49, 94.47 36.14 C95.77 43.78, 94.35 51.98, 91.13 59.02 C87.92 66.07, 82.22 73.87, 75.19 78.41 C68.15 82.96, 57.55 86.22, 48.91 86.29 C40.28 86.36, 30.88 82.87, 23.38 78.86 C15.89 74.86, 7.89 68.93, 3.93 62.26 C-0.04 55.59, -1.65 46.5, -0.41 38.86 C0.83 31.23, 5.58 22.58, 11.38 16.43 C17.17 10.28, 29.8 4.35, 34.33 1.97 C38.87 -0.41, 38.25 1.46, 38.6 2.14 M51.1 -0.95 C59.27 -0.81, 70.56 3.41, 77.46 8.19 C84.37 12.97, 89.79 20.39, 92.55 27.75 C95.31 35.1, 95.95 44.7, 94 52.31 C92.05 59.92, 87.34 67.95, 80.85 73.39 C74.36 78.82, 63.45 83.4, 55.08 84.91 C46.7 86.43, 38.4 85.37, 30.61 82.46 C22.83 79.55, 13.65 73.86, 8.39 67.45 C3.12 61.04, -0.77 51.82, -0.99 43.99 C-1.21 36.17, 2.62 27.09, 7.07 20.49 C11.52 13.89, 17.95 7.81, 25.69 4.39 C33.43 0.97, 49.1 0.45, 53.52 -0.04 C57.95 -0.52, 52.41 0.92, 52.22 1.48" stroke="#1e1e1e" stroke-width="2" fill="none"></path></g><g transform="translate(1196.925632463293 906.2386420264361) rotate(0 23.59198760986328 10)"><text x="23.59198760986328" y="0" font-family="Virgil, Segoe UI Emoji" font-size="16px" fill="#1e1e1e" text-anchor="middle" style="white-space: pre;" direction="ltr" dominant-baseline="text-before-edge">(()(), 1</text></g><g stroke-linecap="round"><g transform="translate(1221.673411497954 817.4730849642139) rotate(0 0.3001218273664108 24.51307086435861)"><path d="M0.47 -0.05 C0.45 8.11, 0.36 41.22, 0.44 49.35 M0.04 -0.55 C-0.11 7.42, -0.2 40.26, -0.08 48.55" stroke="#1e1e1e" stroke-width="2" fill="none"></path></g><g transform="translate(1221.673411497954 817.4730849642139) rotate(0 0.3001218273664108 24.51307086435861)"><path d="M-8.56 25.55 C-5.18 34.39, -1.12 44.46, -0.08 48.55 M-8.56 25.55 C-6.4 31.49, -4.73 36.74, -0.08 48.55" stroke="#1e1e1e" stroke-width="2" fill="none"></path></g><g transform="translate(1221.673411497954 817.4730849642139) rotate(0 0.3001218273664108 24.51307086435861)"><path d="M8.21 25.48 C4.9 34.42, 2.27 44.52, -0.08 48.55 M8.21 25.48 C6.19 31.37, 3.68 36.64, -0.08 48.55" stroke="#1e1e1e" stroke-width="2" fill="none"></path></g></g><mask></mask><g stroke-linecap="round" transform="translate(1164.2710294410595 1050.7376951879137) rotate(0 58.05078125 55.033203125)"><path d="M80.28 3.63 C89.13 6.14, 97.86 13.99, 103.63 21.13 C109.4 28.27, 113.53 37.49, 114.88 46.46 C116.23 55.43, 115.33 66.23, 111.72 74.96 C108.12 83.68, 100.91 92.96, 93.27 98.8 C85.63 104.63, 75.44 108.63, 65.88 109.97 C56.33 111.3, 44.94 110.17, 35.95 106.81 C26.96 103.46, 17.88 97.24, 11.96 89.83 C6.04 82.41, 1.72 71.6, 0.43 62.33 C-0.86 53.06, 0.68 42.43, 4.24 34.19 C7.81 25.95, 14.28 18.51, 21.82 12.88 C29.36 7.25, 39.49 1.58, 49.49 0.4 C59.49 -0.78, 75.77 4.58, 81.83 5.8 C87.89 7.02, 86.25 7.03, 85.84 7.72 M40.75 1.95 C49.21 -1.52, 61.35 -1.22, 70.93 0.7 C80.51 2.62, 90.96 7.05, 98.23 13.48 C105.5 19.92, 111.73 30.59, 114.57 39.31 C117.4 48.03, 117.42 57.01, 115.25 65.8 C113.09 74.59, 108.06 85.23, 101.58 92.05 C95.09 98.86, 85.4 104.06, 76.35 106.69 C67.3 109.33, 56.57 109.75, 47.28 107.87 C37.99 106, 27.93 101.56, 20.61 95.43 C13.28 89.3, 6.32 79.72, 3.34 71.08 C0.37 62.45, 0.88 52.42, 2.75 43.61 C4.62 34.81, 8.48 24.9, 14.58 18.24 C20.68 11.57, 35.1 6.05, 39.37 3.64 C43.64 1.22, 39.73 3.19, 40.18 3.75" stroke="#1e1e1e" stroke-width="2" fill="none"></path></g><g transform="translate(1192.6417287200115 1095.8565471928096) rotate(0 29.631980895996094 10)"><text x="29.631980895996094" y="0" font-family="Virgil, Segoe UI Emoji" font-size="16px" fill="#1e1e1e" text-anchor="middle" style="white-space: pre;" direction="ltr" dominant-baseline="text-before-edge">(()()), 0</text></g><g stroke-linecap="round"><g transform="translate(1223.446216239372 966.8822627785712) rotate(0 0.4704127114490575 37.115394348931204)"><path d="M-0.56 1.09 C-0.4 13.66, 0.21 62.05, 0.45 74.23 M1.35 0.62 C1.35 13.49, -0.54 63.29, -0.75 75.77" stroke="#1e1e1e" stroke-width="2" fill="none"></path></g><g transform="translate(1223.446216239372 966.8822627785712) rotate(0 0.4704127114490575 37.115394348931204)"><path d="M-10.21 47.3 C-6.19 53.97, -5.54 62.11, -0.75 75.77 M-10.21 47.3 C-7.51 55.07, -4.33 64.72, -0.75 75.77" stroke="#1e1e1e" stroke-width="2" fill="none"></path></g><g transform="translate(1223.446216239372 966.8822627785712) rotate(0 0.4704127114490575 37.115394348931204)"><path d="M10.3 47.88 C8.97 54.3, 4.26 62.29, -0.75 75.77 M10.3 47.88 C6.91 55.66, 4 65.15, -0.75 75.77" stroke="#1e1e1e" stroke-width="2" fill="none"></path></g></g><mask></mask><g stroke-linecap="round" transform="translate(1426.63671875 904.404296875) rotate(0 47.560546875 42.935546875)"><path d="M33.84 1.66 C41.69 -1.1, 53.07 0.2, 61.18 2.17 C69.3 4.13, 76.87 7.8, 82.54 13.44 C88.21 19.09, 93.62 28.39, 95.2 36.03 C96.79 43.67, 95.47 52.21, 92.07 59.3 C88.66 66.4, 82.21 74.06, 74.8 78.62 C67.39 83.17, 56.14 86.38, 47.59 86.65 C39.04 86.91, 30.78 84.33, 23.48 80.21 C16.19 76.08, 7.78 68.87, 3.82 61.91 C-0.13 54.95, -1.35 46.15, -0.23 38.46 C0.88 30.77, 2.96 22.24, 10.5 15.76 C18.04 9.27, 37.1 1.85, 45.02 -0.45 C52.95 -2.76, 57.98 1.11, 58.03 1.92 M69.14 3.07 C76.82 5.42, 84.62 13.42, 89.05 20.21 C93.48 26.99, 95.88 36.08, 95.73 43.78 C95.58 51.48, 92.99 59.99, 88.16 66.4 C83.33 72.81, 74.78 78.9, 66.77 82.24 C58.75 85.59, 48.7 87.86, 40.07 86.47 C31.45 85.07, 21.41 79.23, 15.02 73.86 C8.62 68.5, 3.64 61.48, 1.68 54.28 C-0.27 47.09, 0.88 38.21, 3.27 30.69 C5.67 23.17, 9.97 14.34, 16.08 9.16 C22.19 3.97, 31.09 0.32, 39.92 -0.43 C48.74 -1.19, 64.59 3.94, 69.03 4.64 C73.47 5.33, 67.15 2.94, 66.55 3.73" stroke="#1e1e1e" stroke-width="2" fill="none"></path></g><g transform="translate(1450.4748928028835 937.4798274007346) rotate(0 23.59198760986328 10)"><text x="23.59198760986328" y="0" font-family="Virgil, Segoe UI Emoji" font-size="16px" fill="#1e1e1e" text-anchor="middle" style="white-space: pre;" direction="ltr" dominant-baseline="text-before-edge">(())(, 1</text></g><g stroke-linecap="round"><g transform="translate(1463.6271415973927 813.8933353618888) rotate(0 5.713016526852925 41.53203251602065)"><path d="M-0.16 1.12 C1.86 14.83, 9.58 68.84, 11.64 82.35 M-1.7 0.66 C0.22 14.5, 8.55 69.78, 10.8 83.52" stroke="#1e1e1e" stroke-width="2" fill="none"></path></g><g transform="translate(1463.6271415973927 813.8933353618888) rotate(0 5.713016526852925 41.53203251602065)"><path d="M-3.69 57.25 C2 64.53, 2.77 72.36, 10.8 83.52 M-3.69 57.25 C0.55 62.87, 2.64 68.7, 10.8 83.52" stroke="#1e1e1e" stroke-width="2" fill="none"></path></g><g transform="translate(1463.6271415973927 813.8933353618888) rotate(0 5.713016526852925 41.53203251602065)"><path d="M16.59 54.08 C16.95 62.17, 12.38 70.83, 10.8 83.52 M16.59 54.08 C16.16 60.36, 13.59 66.91, 10.8 83.52" stroke="#1e1e1e" stroke-width="2" fill="none"></path></g></g><mask></mask><g stroke-linecap="round" transform="translate(1412.8745637157813 1058.6944326377666) rotate(0 54.974609375 62.185546875)"><path d="M70.95 2.29 C78.75 4.07, 87.81 11.36, 93.83 18.24 C99.85 25.12, 104.47 34.33, 107.07 43.58 C109.66 52.83, 110.98 64.22, 109.41 73.72 C107.84 83.22, 102.95 93.17, 97.65 100.6 C92.36 108.03, 85.47 114.31, 77.63 118.3 C69.79 122.3, 59.03 124.99, 50.62 124.57 C42.2 124.15, 34.15 120.99, 27.15 115.8 C20.15 110.6, 13 101.8, 8.63 93.39 C4.26 84.98, 1.65 74.71, 0.93 65.35 C0.22 55.99, 1.15 46, 4.36 37.23 C7.56 28.46, 13.26 18.9, 20.17 12.73 C27.08 6.55, 36.38 1.29, 45.81 0.17 C55.24 -0.94, 70.57 4.26, 76.78 6.03 C82.99 7.81, 83.16 10.08, 83.07 10.83 M77.07 4.43 C84.89 7.62, 93.12 16.67, 98.22 24.25 C103.32 31.84, 106.09 40.83, 107.66 49.93 C109.24 59.04, 109.76 69.68, 107.69 78.86 C105.63 88.05, 101.39 97.84, 95.3 105.05 C89.2 112.26, 79.53 119.12, 71.15 122.1 C62.76 125.09, 53.09 124.79, 45 122.96 C36.91 121.13, 29.38 117.1, 22.62 111.14 C15.87 105.18, 8.32 95.97, 4.49 87.22 C0.65 78.48, -0.77 68.04, -0.39 58.65 C0 49.27, 2.33 38.95, 6.81 30.9 C11.29 22.85, 18.92 15.3, 26.49 10.35 C34.05 5.41, 43.66 1.97, 52.18 1.21 C60.7 0.45, 73.51 5.09, 77.6 5.78 C81.7 6.47, 77.23 4.56, 76.75 5.38" stroke="#1e1e1e" stroke-width="2" fill="none"></path></g><g transform="translate(1438.344273112641 1110.9081576256601) rotate(0 29.631980895996094 10)"><text x="29.631980895996094" y="0" font-family="Virgil, Segoe UI Emoji" font-size="16px" fill="#1e1e1e" text-anchor="middle" style="white-space: pre;" direction="ltr" dominant-baseline="text-before-edge">(())(), 0</text></g><g stroke-linecap="round"><g transform="translate(1479.488904885406 993.0330211881587) rotate(0 0.2703561793277913 32.45888650814072)"><path d="M0.25 -0.78 C0.3 9.83, 0.27 53.32, 0.42 64.34 M-1.07 1.43 C-1.21 12.13, -0.89 55.27, -0.59 65.58" stroke="#1e1e1e" stroke-width="2" fill="none"></path></g><g transform="translate(1479.488904885406 993.0330211881587) rotate(0 0.2703561793277913 32.45888650814072)"><path d="M-11.3 37.56 C-9.07 46.13, -5.37 56.17, -0.59 65.58 M-11.3 37.56 C-7.54 46.82, -5.04 56.12, -0.59 65.58" stroke="#1e1e1e" stroke-width="2" fill="none"></path></g><g transform="translate(1479.488904885406 993.0330211881587) rotate(0 0.2703561793277913 32.45888650814072)"><path d="M9.22 37.23 C5.01 45.94, 2.27 56.09, -0.59 65.58 M9.22 37.23 C6.06 46.53, 1.65 55.94, -0.59 65.58" stroke="#1e1e1e" stroke-width="2" fill="none"></path></g></g><mask></mask><g stroke-opacity="0.5" fill-opacity="0.5" transform="translate(1676.3240946095095 234.87366024389644) rotate(0 -23.879541844878986 27.27956644280681)" stroke="none"><path fill="#e03131" d="M 3.76,2.63 Q 3.76,2.63 2.48,4.60 1.21,6.58 -1.50,10.36 -4.21,14.15 -6.24,16.67 -8.27,19.19 -10.07,21.44 -11.87,23.69 -14.34,26.30 -16.80,28.91 -18.16,30.58 -19.52,32.25 -22.31,34.92 -25.11,37.58 -27.29,39.77 -29.47,41.95 -31.01,43.57 -32.55,45.19 -34.56,47.45 -36.57,49.71 -37.93,51.60 -39.30,53.48 -40.96,54.77 -42.62,56.06 -43.08,56.63 -43.53,57.20 -44.11,57.64 -44.69,58.08 -45.36,58.37 -46.03,58.66 -46.75,58.78 -47.47,58.91 -48.19,58.85 -48.92,58.80 -49.61,58.57 -50.31,58.35 -50.93,57.96 -51.55,57.58 -52.05,57.05 -52.56,56.53 -52.93,55.90 -53.30,55.27 -53.51,54.58 -53.72,53.88 -53.75,53.15 -53.79,52.42 -53.65,51.71 -53.50,50.99 -53.20,50.33 -52.89,49.67 -53.30,50.72 -53.70,51.77 -53.37,50.85 -53.04,49.93 -52.43,49.16 -51.83,48.39 -51.01,47.86 -50.19,47.33 -49.24,47.08 -48.29,46.84 -47.31,46.91 -46.34,46.98 -45.44,47.36 -44.53,47.74 -43.80,48.39 -43.07,49.04 -42.58,49.89 -42.09,50.74 -41.90,51.70 -41.71,52.66 -41.83,53.63 -41.96,54.60 -42.39,55.48 -42.82,56.36 -43.50,57.05 -44.19,57.75 -45.06,58.19 -45.94,58.63 -46.90,58.77 -47.87,58.91 -48.84,58.73 -49.80,58.56 -50.65,58.08 -51.51,57.61 -52.17,56.88 -52.83,56.16 -53.22,55.26 -53.61,54.37 -53.70,53.39 -53.79,52.42 -53.56,51.47 -53.33,50.51 -52.81,49.69 -52.29,48.86 -51.53,48.24 -50.77,47.62 -49.85,47.28 -48.94,46.93 -47.96,46.90 -46.98,46.87 -46.04,47.15 -45.11,47.43 -44.31,47.99 -43.51,48.56 -42.93,49.35 -42.36,50.14 -42.06,51.07 -41.77,52.00 -42.19,54.03 -42.62,56.06 -43.08,56.63 -43.53,57.19 -44.11,57.64 -44.69,58.08 -45.36,58.37 -46.03,58.66 -46.75,58.78 -47.47,58.91 -48.19,58.85 -48.92,58.80 -49.61,58.57 -50.31,58.35 -50.93,57.96 -51.54,57.58 -52.05,57.05 -52.56,56.53 -52.93,55.90 -53.30,55.28 -53.51,54.58 -53.72,53.88 -53.75,53.15 -53.79,52.42 -53.65,51.71 -53.50,50.99 -53.20,50.33 -52.89,49.67 -51.90,49.86 -50.92,50.05 -49.23,47.82 -47.54,45.59 -45.71,43.95 -43.87,42.30 -41.53,40.30 -39.19,38.29 -37.57,36.87 -35.94,35.44 -33.81,33.34 -31.68,31.24 -29.26,28.50 -26.84,25.76 -25.32,24.19 -23.80,22.62 -21.65,20.08 -19.50,17.55 -17.74,15.39 -15.99,13.23 -14.08,10.66 -12.17,8.09 -9.39,4.61 -6.60,1.12 -5.18,-0.75 -3.76,-2.63 -3.39,-3.04 -3.02,-3.45 -2.56,-3.76 -2.10,-4.07 -1.59,-4.27 -1.07,-4.46 -0.52,-4.52 0.02,-4.59 0.57,-4.52 1.12,-4.45 1.64,-4.25 2.15,-4.05 2.61,-3.73 3.06,-3.41 3.42,-3.00 3.79,-2.58 4.04,-2.09 4.30,-1.60 4.43,-1.06 4.56,-0.52 4.55,0.02 4.55,0.58 4.41,1.11 4.28,1.65 4.02,2.14 3.76,2.63 3.76,2.63 L 3.76,2.63 Z"></path></g><g stroke-opacity="0.5" fill-opacity="0.5" transform="translate(1627.0076494950856 234.75353319185604) rotate(0 31.786476020249324 21.23245644813258)" stroke="none"><path fill="#e03131" d="M 0.24,-5.23 Q 0.24,-5.23 3.33,-5.02 6.41,-4.82 9.08,-4.37 11.75,-3.91 13.82,-3.33 15.90,-2.75 19.09,-1.47 22.29,-0.19 24.75,1.22 27.22,2.64 29.24,4.15 31.26,5.67 33.90,7.46 36.54,9.25 39.51,11.63 42.48,14.01 45.02,16.10 47.57,18.18 49.57,20.15 51.57,22.13 53.11,23.70 54.64,25.27 56.45,27.25 58.26,29.24 60.03,30.97 61.80,32.69 63.48,34.09 65.17,35.49 66.18,35.40 67.20,35.31 67.78,35.93 68.36,36.55 68.77,37.29 69.18,38.03 69.41,38.85 69.63,39.67 69.65,40.52 69.67,41.37 69.49,42.20 69.31,43.03 68.93,43.79 68.56,44.55 68.01,45.20 67.46,45.85 66.78,46.35 66.09,46.85 65.31,47.17 64.52,47.49 63.68,47.61 62.84,47.74 62.00,47.66 61.15,47.57 60.35,47.29 59.55,47.01 58.84,46.55 58.13,46.08 57.05,44.48 55.97,42.88 55.79,41.75 55.62,40.63 55.82,39.51 56.01,38.38 56.55,37.38 57.10,36.38 57.93,35.61 58.77,34.83 59.81,34.36 60.84,33.89 61.98,33.78 63.11,33.67 64.22,33.92 65.33,34.18 66.30,34.78 67.27,35.37 68.00,36.25 68.73,37.12 69.14,38.19 69.55,39.25 69.61,40.39 69.66,41.53 69.34,42.62 69.03,43.72 68.38,44.65 67.73,45.59 66.81,46.27 65.90,46.95 64.82,47.30 63.73,47.66 62.59,47.65 61.46,47.63 60.38,47.26 59.30,46.89 58.40,46.19 57.50,45.49 56.87,44.54 56.24,43.59 55.95,42.49 55.65,41.39 55.73,40.25 55.80,39.12 56.23,38.06 56.66,37.01 57.41,36.15 58.16,35.28 59.14,34.71 60.12,34.13 61.24,33.89 62.35,33.66 63.48,33.80 64.61,33.93 65.64,34.42 66.67,34.91 67.49,35.70 68.31,36.49 67.75,35.90 67.20,35.31 67.78,35.93 68.35,36.55 68.77,37.29 69.18,38.03 69.41,38.85 69.63,39.67 69.65,40.52 69.67,41.37 69.49,42.20 69.31,43.03 68.93,43.79 68.56,44.55 68.01,45.20 67.47,45.85 66.78,46.35 66.09,46.85 65.31,47.17 64.52,47.49 63.68,47.61 62.84,47.74 62.00,47.66 61.15,47.58 60.35,47.29 59.55,47.01 58.84,46.55 58.13,46.08 58.19,47.04 58.25,48.00 56.31,46.12 54.38,44.24 52.14,42.16 49.90,40.08 48.37,38.19 46.84,36.30 45.38,34.47 43.92,32.64 42.40,30.86 40.88,29.07 38.88,27.26 36.88,25.45 34.39,23.27 31.91,21.09 29.31,19.05 26.71,17.00 23.78,14.77 20.85,12.54 19.04,11.22 17.24,9.90 14.90,8.66 12.56,7.43 9.24,6.41 5.92,5.39 2.84,5.31 -0.24,5.23 -0.86,5.12 -1.48,5.02 -2.06,4.77 -2.64,4.52 -3.14,4.13 -3.65,3.75 -4.04,3.26 -4.44,2.77 -4.71,2.20 -4.98,1.62 -5.10,1.00 -5.22,0.38 -5.19,-0.24 -5.16,-0.87 -4.98,-1.47 -4.80,-2.08 -4.48,-2.62 -4.16,-3.17 -3.72,-3.62 -3.28,-4.07 -2.75,-4.41 -2.21,-4.74 -1.61,-4.94 -1.01,-5.14 -0.38,-5.18 0.24,-5.23 0.24,-5.23 L 0.24,-5.23 Z"></path></g><g stroke-linecap="round"><g stroke-opacity="0.5" fill-opacity="0.5" transform="translate(918.101000576601 788.3992659923509) rotate(0 36.48312437204373 35.53481183851051)"><path d="M-0.97 0.24 C11.08 11.94, 60.63 58.42, 72.99 70.27" stroke="#e03131" stroke-width="2.5" fill="none" stroke-dasharray="8 10"></path></g><g stroke-opacity="0.5" fill-opacity="0.5" transform="translate(918.101000576601 788.3992659923509) rotate(0 36.48312437204373 35.53481183851051)"><path d="M45.47 58.33 C55.78 62.89, 63.94 67.52, 72.99 70.27" stroke="#e03131" stroke-width="2.5" fill="none"></path></g><g stroke-opacity="0.5" fill-opacity="0.5" transform="translate(918.101000576601 788.3992659923509) rotate(0 36.48312437204373 35.53481183851051)"><path d="M59.58 43.43 C64.83 53.23, 67.92 63.22, 72.99 70.27" stroke="#e03131" stroke-width="2.5" fill="none"></path></g></g><mask></mask><g stroke-linecap="round" transform="translate(950.6081738659029 870.7710102280914) rotate(0 47.560546875 42.935546875)"><path d="M41.5 -0.17 C49.43 -1.68, 60.66 0.09, 68.3 3.48 C75.93 6.87, 82.96 13.54, 87.31 20.14 C91.66 26.75, 94.6 35.21, 94.38 43.11 C94.17 51.02, 90.73 61.11, 86.02 67.59 C81.31 74.06, 73.92 79.04, 66.13 81.95 C58.34 84.85, 47.85 86.25, 39.28 85.03 C30.71 83.82, 20.97 79.69, 14.69 74.64 C8.41 69.58, 3.56 62.27, 1.6 54.72 C-0.37 47.16, 0.2 36.86, 2.89 29.29 C5.59 21.72, 11 14.02, 17.77 9.28 C24.55 4.55, 38.88 2.12, 43.55 0.88 C48.21 -0.36, 45.61 1.2, 45.78 1.82 M47.55 0.37 C55.5 -0.33, 65.8 1.63, 73.11 5.65 C80.42 9.68, 87.61 17.28, 91.39 24.51 C95.18 31.74, 96.96 41.13, 95.81 49.01 C94.65 56.89, 90.61 65.7, 84.47 71.8 C78.33 77.91, 67.44 83.83, 58.97 85.65 C50.5 87.46, 41.69 85.15, 33.63 82.7 C25.57 80.24, 16.28 76.85, 10.61 70.91 C4.94 64.98, 0.55 54.64, -0.37 47.09 C-1.29 39.54, 1.12 32.41, 5.09 25.63 C9.06 18.85, 16.3 10.78, 23.43 6.42 C30.57 2.06, 43.62 0.2, 47.92 -0.54 C52.21 -1.28, 49.43 1.1, 49.22 1.98" stroke="#1e1e1e" stroke-width="2" fill="none"></path></g><g transform="translate(970.3023430970092 903.846540753826) rotate(0 27.735992431640625 10)"><text x="27.735992431640625" y="0" font-family="Virgil, Segoe UI Emoji" font-size="16px" fill="#1e1e1e" text-anchor="middle" style="white-space: pre;" direction="ltr" dominant-baseline="text-before-edge">((()(, 2</text></g><g stroke-linecap="round" transform="translate(942.4215388664672 1074.2079728652955) rotate(0 47.560546875 42.935546875)"><path d="M63.99 1.96 C71.8 3.94, 80.7 10.23, 85.87 16.7 C91.04 23.17, 94.55 32.83, 95.01 40.76 C95.47 48.69, 92.84 57.75, 88.63 64.27 C84.41 70.78, 77.26 76.38, 69.72 79.86 C62.17 83.33, 51.68 85.7, 43.36 85.13 C35.03 84.55, 26.56 81.04, 19.77 76.42 C12.98 71.79, 5.68 64.42, 2.61 57.38 C-0.46 50.34, -0.65 41.81, 1.36 34.18 C3.36 26.55, 8.7 17.19, 14.65 11.62 C20.6 6.04, 28.26 2.08, 37.06 0.74 C45.86 -0.61, 62.3 2.69, 67.45 3.55 C72.59 4.41, 68.43 5.22, 67.96 5.89 M48.35 0.93 C56.76 0.75, 69.21 3.81, 76.23 7.91 C83.24 12.02, 87.36 18.36, 90.45 25.58 C93.54 32.8, 96.18 43.58, 94.79 51.23 C93.39 58.89, 88.11 66.02, 82.07 71.51 C76.02 77, 66.59 82.15, 58.55 84.19 C50.5 86.23, 41.98 86.12, 33.79 83.78 C25.61 81.44, 14.97 76.31, 9.43 70.16 C3.89 64.02, 1.02 54.56, 0.55 46.91 C0.08 39.26, 2.95 31.03, 6.59 24.27 C10.23 17.51, 15.02 10.54, 22.39 6.33 C29.75 2.13, 46.33 0.11, 50.8 -0.97 C55.27 -2.05, 49.32 -1.1, 49.19 -0.13" stroke="#1e1e1e" stroke-width="2" fill="none"></path></g><g transform="translate(962.9397132245266 1107.28350339103) rotate(0 26.9119873046875 10)"><text x="26.9119873046875" y="0" font-family="Virgil, Segoe UI Emoji" font-size="16px" fill="#1e1e1e" text-anchor="middle" style="white-space: pre;" direction="ltr" dominant-baseline="text-before-edge">((()(), 1</text></g><g stroke-linecap="round"><g stroke-opacity="0.5" fill-opacity="0.5" transform="translate(999.8861490457468 965.0517869648775) rotate(0 -2.2864178021457064 52.20793374934942)"><path d="M-0.66 -0.85 C-1.26 16.46, -3.23 85.61, -4.07 103.24" stroke="#e03131" stroke-width="2.5" fill="none" stroke-dasharray="8 10"></path></g><g stroke-opacity="0.5" fill-opacity="0.5" transform="translate(999.8861490457468 965.0517869648775) rotate(0 -2.2864178021457064 52.20793374934942)"><path d="M-13.29 74.69 C-12.43 83.1, -10.55 87.93, -4.07 103.24" stroke="#e03131" stroke-width="2.5" fill="none"></path></g><g stroke-opacity="0.5" fill-opacity="0.5" transform="translate(999.8861490457468 965.0517869648775) rotate(0 -2.2864178021457064 52.20793374934942)"><path d="M7.22 75.44 C2.68 83.54, -0.84 88.17, -4.07 103.24" stroke="#e03131" stroke-width="2.5" fill="none"></path></g></g><mask></mask><g stroke-linecap="round" transform="translate(909.393755246638 1272.9738457791473) rotate(0 64.7653197565619 57.70083703454941)"><path d="M94.97 6.4 C103.73 9.78, 111.58 17.76, 117.33 25.09 C123.08 32.41, 128.2 41.49, 129.48 50.37 C130.77 59.25, 128.77 69.85, 125.05 78.36 C121.33 86.86, 114.81 95.53, 107.18 101.41 C99.56 107.3, 88.99 111.53, 79.32 113.67 C69.65 115.81, 58.68 116.52, 49.17 114.26 C39.65 111.99, 29.58 106.15, 22.23 100.08 C14.89 94.01, 8.65 85.94, 5.11 77.84 C1.56 69.73, -0.12 60.27, 0.97 51.44 C2.05 42.61, 6.07 32.31, 11.61 24.87 C17.14 17.43, 25.32 11.06, 34.16 6.8 C42.99 2.53, 53.94 -1.09, 64.61 -0.71 C75.29 -0.33, 91.78 7.02, 98.19 9.09 C104.61 11.16, 103.4 10.83, 103.09 11.71 M72.26 0.48 C81.8 0.98, 93.88 5.58, 102.12 10.76 C110.36 15.93, 116.9 23.54, 121.71 31.54 C126.52 39.53, 130.69 49.76, 130.97 58.74 C131.24 67.73, 128.28 77.79, 123.35 85.43 C118.41 93.07, 109.7 99.67, 101.34 104.59 C92.97 109.52, 82.91 113.81, 73.15 114.97 C63.39 116.13, 52.04 114.63, 42.77 111.56 C33.49 108.49, 24.04 103.22, 17.49 96.55 C10.93 89.87, 6.13 80.26, 3.43 71.51 C0.73 62.76, -0.58 52.82, 1.28 44.06 C3.14 35.29, 7.98 25.61, 14.59 18.93 C21.19 12.24, 31.24 6.91, 40.9 3.95 C50.57 0.99, 67.39 1.5, 72.58 1.16 C77.76 0.82, 72.13 1.09, 72.01 1.9" stroke="#1e1e1e" stroke-width="2" fill="none"></path></g><g transform="translate(941.4110976267996 1320.8740296664268) rotate(0 32.95198059082031 10)"><text x="32.95198059082031" y="0" font-family="Virgil, Segoe UI Emoji" font-size="16px" fill="#1e1e1e" text-anchor="middle" style="white-space: pre;" direction="ltr" dominant-baseline="text-before-edge">((()()), 0</text></g><g stroke-linecap="round"><g stroke-opacity="0.5" fill-opacity="0.5" transform="translate(995.4499788628221 1161.6714098881507) rotate(0 -7.150868222171027 53.667262063885005)"><path d="M0.42 -0.97 C-1.74 16.95, -10.97 89.04, -13.46 107.19" stroke="#e03131" stroke-width="2.5" fill="none" stroke-dasharray="8 10"></path></g><g stroke-opacity="0.5" fill-opacity="0.5" transform="translate(995.4499788628221 1161.6714098881507) rotate(0 -7.150868222171027 53.667262063885005)"><path d="M-19.95 77.9 C-19.94 86.89, -16.89 92.73, -13.46 107.19" stroke="#e03131" stroke-width="2.5" fill="none"></path></g><g stroke-opacity="0.5" fill-opacity="0.5" transform="translate(995.4499788628221 1161.6714098881507) rotate(0 -7.150868222171027 53.667262063885005)"><path d="M0.4 80.58 C-4.87 88.94, -7.1 94.09, -13.46 107.19" stroke="#e03131" stroke-width="2.5" fill="none"></path></g></g><mask></mask><g stroke-linecap="round" transform="translate(919.0110643236444 1497.2962043521775) rotate(0 64.7653197565619 57.70083703454941)"><path d="M94.63 6.87 C103.45 10.15, 112.77 17.65, 118.69 24.92 C124.6 32.18, 129.17 41.46, 130.12 50.46 C131.07 59.46, 128.11 70.38, 124.38 78.91 C120.66 87.44, 115.14 95.88, 107.77 101.65 C100.4 107.42, 89.96 111.46, 80.17 113.54 C70.37 115.63, 58.9 116.33, 49.02 114.15 C39.13 111.98, 28.26 106.68, 20.84 100.5 C13.43 94.33, 7.87 85.63, 4.54 77.1 C1.22 68.57, -0.44 58.13, 0.9 49.34 C2.24 40.54, 6.92 31.63, 12.6 24.33 C18.28 17.03, 26.15 9.68, 34.99 5.55 C43.83 1.42, 54.73 -1.24, 65.62 -0.46 C76.5 0.33, 93.64 7.83, 100.31 10.25 C106.97 12.66, 106.12 13.23, 105.62 14.01 M38.69 6.13 C46.92 1.93, 59.09 0.5, 69.01 1.01 C78.93 1.53, 90.02 5.11, 98.22 9.22 C106.41 13.34, 112.79 18.52, 118.18 25.7 C123.57 32.88, 129.58 43.38, 130.55 52.29 C131.52 61.2, 128.28 70.78, 124 79.16 C119.72 87.54, 112.38 96.48, 104.86 102.58 C97.35 108.68, 88.47 113.78, 78.91 115.75 C69.35 117.71, 57.12 117.21, 47.5 114.36 C37.88 111.51, 28.57 105.26, 21.17 98.65 C13.78 92.04, 6.67 82.95, 3.13 74.69 C-0.4 66.43, -1.49 57.68, -0.05 49.1 C1.38 40.52, 5.37 30.55, 11.75 23.21 C18.13 15.86, 33.93 7.77, 38.22 5.02 C42.52 2.28, 37.14 5.95, 37.5 6.76" stroke="#1e1e1e" stroke-width="2" fill="none"></path></g><g transform="translate(948.3724161032201 1545.196388239457) rotate(0 35.60797119140625 10)"><text x="35.60797119140625" y="0" font-family="Virgil, Segoe UI Emoji" font-size="16px" fill="#1e1e1e" text-anchor="middle" style="white-space: pre;" direction="ltr" dominant-baseline="text-before-edge">((()())), -1</text></g><g stroke-linecap="round"><g stroke-opacity="0.5" fill-opacity="0.5" transform="translate(976.3636823396184 1389.3425281262776) rotate(0 1.213088155807327 49.277515903729864)"><path d="M-0.33 -0.83 C0.1 15.39, 1.15 81.2, 1.68 97.63" stroke="#e03131" stroke-width="2.5" fill="none" stroke-dasharray="8 10"></path></g><g stroke-opacity="0.5" fill-opacity="0.5" transform="translate(976.3636823396184 1389.3425281262776) rotate(0 1.213088155807327 49.277515903729864)"><path d="M-9.23 69.68 C-8.03 74.88, -5.7 83.32, 1.68 97.63" stroke="#e03131" stroke-width="2.5" fill="none"></path></g><g stroke-opacity="0.5" fill-opacity="0.5" transform="translate(976.3636823396184 1389.3425281262776) rotate(0 1.213088155807327 49.277515903729864)"><path d="M11.29 69.21 C7.78 74.46, 5.41 83, 1.68 97.63" stroke="#e03131" stroke-width="2.5" fill="none"></path></g></g><mask></mask></svg>